PathFileType	4	(X/Y/Z)	E1.trc
DataRate	CameraRate	NumFrames	NumMarkers	Units	OrigDataRate	OrigDataStartFrame	OrigNumFrames
60.0	60.0	14	23	m	60.0	1643	2190
Frame#	Time	NOSE	LEFT_EAR	RIGHT_EAR	LEFT_SHOULDER	RIGHT_SHOULDER	LEFT_ELBOW	RIGHT_ELBOW	LEFT_WRIST	RIGHT_WRIST	LEFT_INDEX	RIGHT_INDEX	LEFT_THUMB	RIGHT_THUMB	LEFT_HIP	RIGHT_HIP	LEFT_KNEE	RIGHT_KNEE	LEFT_ANKLE	RIGHT_ANKLE	LEFT_HEEL	RIGHT_HEEL	LEFT_FOOT_INDEX	RIGHT_FOOT_INDEX
		X1	Y1	Z1	X2	Y2	Z2	X3	Y3	Z3	X4	Y4	Z4	X5	Y5	Z5	X6	Y6	Z6	X7	Y7	Z7	X8	Y8	Z8	X9	Y9	Z9	X10	Y10	Z10	X11	Y11	Z11	X12	Y12	Z12	X13	Y13	Z13	X14	Y14	Z14	X15	Y15	Z15	X16	Y16	Z16	X17	Y17	Z17	X18	Y18	Z18	X19	Y19	Z19	X20	Y20	Z20	X21	Y21	Z21	X22	Y22	Z22	X23	Y23	Z23
1643	27.366667	0.259533	1.679114	0.469380	0.311951	1.698002	0.388968	0.197334	1.700425	0.410402	0.434640	1.474072	0.343084	0.059058	1.483864	0.375091	0.500533	1.190005	0.494481	-0.003046	1.195655	0.465463	0.322475	1.331765	0.600108	0.181686	1.364614	0.554368	0.297372	1.416490	0.590355	0.211187	1.441577	0.557276	0.297341	1.406000	0.574761	0.208954	1.424361	0.550838	0.367193	0.910758	0.408465	0.134274	0.914362	0.411225	0.457658	0.501899	0.398227	0.034348	0.493848	0.365905	0.510051	0.082681	0.353196	-0.026846	0.077595	0.324562	0.503070	0.015326	0.323867	-0.002644	0.013239	0.314042	0.583861	0.022273	0.493500	-0.107799	0.009459	0.460927
1644	27.383333	0.259593	1.678454	0.467160	0.311802	1.697396	0.386778	0.196915	1.699780	0.408101	0.433957	1.473633	0.340637	0.058683	1.483522	0.374328	0.500732	1.189226	0.494363	-0.004446	1.195293	0.464797	0.323076	1.331417	0.598110	0.180584	1.363300	0.553325	0.295825	1.416521	0.587069	0.210085	1.440589	0.556125	0.297427	1.404639	0.571916	0.207906	1.423535	0.549959	0.367651	0.910489	0.409844	0.134235	0.914256	0.413918	0.457415	0.502048	0.398093	0.034433	0.493191	0.366439	0.509516	0.083729	0.352762	-0.026808	0.077330	0.324211	0.503244	0.016125	0.323786	-0.002615	0.013025	0.313984	0.583255	0.023186	0.493458	-0.107823	0.009366	0.457767
1645	27.400000	0.259469	1.677622	0.465746	0.311465	1.696784	0.384620	0.196959	1.699154	0.407168	0.433800	1.472992	0.339076	0.058391	1.482527	0.372291	0.501818	1.187944	0.488358	-0.005082	1.193142	0.460718	0.323023	1.332280	0.584255	0.177434	1.358598	0.554568	0.295567	1.415396	0.583299	0.204042	1.437639	0.559267	0.297289	1.403647	0.568089	0.205936	1.421844	0.549580	0.367885	0.910190	0.411720	0.134610	0.914033	0.416137	0.457612	0.501424	0.397958	0.034808	0.492124	0.366575	0.509364	0.084340	0.352923	-0.026518	0.076609	0.324673	0.504189	0.016756	0.323993	-0.002419	0.012589	0.314669	0.583130	0.023372	0.493469	-0.108444	0.008571	0.458010
1646	27.416667	0.259110	1.676991	0.464358	0.311279	1.696008	0.384058	0.196682	1.698251	0.405992	0.433397	1.472667	0.337683	0.058354	1.481603	0.370585	0.503022	1.186382	0.484405	-0.004811	1.191992	0.459406	0.324669	1.325113	0.585435	0.177202	1.357698	0.552764	0.295247	1.413447	0.580308	0.206246	1.436958	0.556019	0.297249	1.400511	0.564300	0.205642	1.421015	0.548341	0.368040	0.909932	0.413512	0.135227	0.913997	0.418941	0.457721	0.500323	0.396881	0.034792	0.491047	0.365984	0.509505	0.082717	0.352313	-0.026436	0.075769	0.324541	0.503699	0.014941	0.323978	-0.002363	0.010978	0.313772	0.584576	0.022606	0.493068	-0.108911	0.007984	0.457459
1647	27.433333	0.259385	1.676386	0.463196	0.311273	1.695415	0.382349	0.196801	1.697514	0.404825	0.432948	1.471967	0.337022	0.057908	1.480682	0.369752	0.504160	1.186052	0.479845	-0.004873	1.190477	0.459635	0.326821	1.324089	0.578881	0.175146	1.355268	0.552768	0.295514	1.412035	0.576364	0.206351	1.433283	0.555189	0.296658	1.399742	0.560551	0.204021	1.418042	0.546775	0.368290	0.909939	0.414870	0.135711	0.913881	0.419235	0.458076	0.501599	0.396807	0.034767	0.490663	0.366179	0.509615	0.082852	0.352356	-0.025868	0.077568	0.325377	0.503900	0.015745	0.324647	-0.002021	0.012074	0.314023	0.585741	0.023694	0.493281	-0.109313	0.008666	0.456813
1648	27.450000	0.259341	1.675821	0.462190	0.310949	1.695072	0.380944	0.196767	1.696914	0.403930	0.432438	1.471818	0.335124	0.057802	1.480185	0.367737	0.506327	1.185405	0.476355	-0.006712	1.190020	0.454880	0.327593	1.325457	0.576564	0.166378	1.351044	0.558272	0.295771	1.411000	0.577224	0.199068	1.429105	0.559248	0.296981	1.398795	0.560249	0.194432	1.413510	0.554135	0.368407	0.909916	0.415537	0.135922	0.913641	0.419700	0.458034	0.501006	0.396362	0.035196	0.490557	0.366660	0.509436	0.083492	0.352342	-0.025628	0.077289	0.325019	0.503995	0.016266	0.325384	-0.001552	0.011880	0.314420	0.586427	0.024270	0.493418	-0.109386	0.008825	0.456334
1649	27.466667	0.259436	1.674745	0.461666	0.310497	1.694250	0.379533	0.196698	1.696054	0.403623	0.432006	1.471447	0.332206	0.057148	1.479492	0.366228	0.510749	1.180621	0.483979	-0.008046	1.188898	0.452777	0.328528	1.322590	0.570482	0.165835	1.348794	0.556875	0.297205	1.408052	0.575462	0.199717	1.427232	0.556615	0.298250	1.396173	0.557552	0.194987	1.411231	0.552376	0.368209	0.909557	0.416614	0.135760	0.913361	0.421127	0.457510	0.500506	0.395790	0.035235	0.489911	0.366998	0.509173	0.084044	0.351857	-0.025612	0.077409	0.325307	0.504015	0.016265	0.325630	-0.001458	0.012248	0.314958	0.586346	0.024468	0.492593	-0.109781	0.009179	0.456802
1650	27.483333	0.258503	1.673339	0.461298	0.309800	1.693050	0.378993	0.196470	1.695274	0.403252	0.431842	1.470607	0.332381	0.057052	1.478719	0.363206	0.512059	1.180180	0.482331	-0.007542	1.188213	0.452741	0.329822	1.317526	0.577310	0.164101	1.346861	0.557112	0.296484	1.404760	0.574430	0.197712	1.424818	0.557624	0.297467	1.394223	0.554840	0.195153	1.409464	0.551171	0.368290	0.909084	0.417526	0.136269	0.913046	0.421399	0.457401	0.499552	0.394848	0.035500	0.489370	0.367713	0.508526	0.083400	0.349642	-0.025659	0.077567	0.325747	0.502343	0.013958	0.322385	-0.002307	0.013326	0.316535	0.585906	0.024355	0.487181	-0.109965	0.009010	0.456261
1651	27.500000	0.258023	1.672523	0.460228	0.309614	1.692379	0.378055	0.196150	1.694252	0.401909	0.431635	1.470223	0.330322	0.056755	1.478042	0.360568	0.511981	1.180206	0.479525	-0.008530	1.187384	0.449353	0.329828	1.316629	0.567138	0.167560	1.344835	0.551670	0.297994	1.404056	0.571152	0.200278	1.421964	0.553968	0.297587	1.393028	0.550996	0.196522	1.407334	0.548799	0.368155	0.908911	0.417993	0.136133	0.912737	0.422359	0.456879	0.497863	0.393592	0.035510	0.488205	0.367730	0.508442	0.081821	0.348823	-0.025803	0.076627	0.325008	0.501756	0.011849	0.320679	-0.002654	0.012512	0.316151	0.585868	0.023811	0.487112	-0.110021	0.008780	0.456176
1652	27.516667	0.258421	1.670944	0.459639	0.309579	1.691172	0.377223	0.196137	1.693288	0.401201	0.431537	1.469505	0.329147	0.055709	1.476681	0.357346	0.511311	1.179436	0.476182	-0.011533	1.185755	0.443634	0.344691	1.308956	0.587300	0.166559	1.342942	0.551389	0.298870	1.401862	0.567556	0.198198	1.419516	0.555413	0.298305	1.390619	0.548768	0.196448	1.405647	0.547980	0.368510	0.908754	0.419413	0.136122	0.912679	0.423171	0.456790	0.497348	0.392842	0.035670	0.488117	0.367975	0.508179	0.081293	0.347899	-0.025429	0.077595	0.325284	0.500576	0.010105	0.320563	-0.002743	0.013090	0.317015	0.585050	0.023255	0.485151	-0.110250	0.009194	0.454597
1653	27.533333	0.257830	1.669600	0.458705	0.309506	1.689778	0.376622	0.195750	1.692409	0.400216	0.431319	1.468972	0.328678	0.055097	1.475451	0.355941	0.511727	1.178318	0.469106	-0.012654	1.184918	0.439583	0.344071	1.306096	0.583428	0.159494	1.342625	0.556421	0.300670	1.390439	0.568313	0.188323	1.418268	0.562394	0.299880	1.377811	0.550280	0.190168	1.404803	0.552040	0.368543	0.908379	0.420792	0.135944	0.911917	0.423625	0.456494	0.496951	0.392972	0.035761	0.487655	0.368054	0.508416	0.080758	0.347875	-0.025264	0.077600	0.324403	0.501025	0.010171	0.320937	-0.003074	0.013334	0.314833	0.584970	0.022974	0.484681	-0.110483	0.009077	0.451575
1654	27.550000	0.257848	1.667833	0.458498	0.309431	1.688290	0.376360	0.195816	1.690988	0.399714	0.430533	1.467586	0.326614	0.055038	1.474240	0.355137	0.513319	1.179545	0.464137	-0.012810	1.183868	0.439625	0.344518	1.308876	0.580572	0.167745	1.341957	0.545495	0.300098	1.392956	0.563605	0.194900	1.416784	0.553611	0.299903	1.378999	0.547898	0.194196	1.403771	0.545971	0.368690	0.907594	0.421703	0.135881	0.911140	0.425094	0.456281	0.496674	0.393118	0.035762	0.487327	0.368353	0.508664	0.080392	0.347959	-0.025457	0.077606	0.323607	0.501142	0.010121	0.321440	-0.003117	0.012739	0.315054	0.584214	0.022495	0.482654	-0.109985	0.010622	0.451028
1655	27.566667	0.257733	1.666467	0.458590	0.308853	1.686850	0.375970	0.195052	1.689473	0.398885	0.429454	1.466857	0.324623	0.055050	1.472996	0.355574	0.513613	1.179026	0.460709	-0.012614	1.182362	0.438737	0.345298	1.307701	0.581392	0.166968	1.340350	0.542754	0.299211	1.391628	0.562935	0.192595	1.416066	0.552723	0.299844	1.377505	0.548956	0.193712	1.403101	0.542989	0.368756	0.907267	0.423048	0.136109	0.910541	0.426490	0.455808	0.497047	0.393609	0.035824	0.487390	0.368749	0.508889	0.080242	0.348250	-0.025365	0.078392	0.323038	0.501468	0.010202	0.322060	-0.002927	0.014526	0.315753	0.584686	0.022119	0.482804	-0.109765	0.010820	0.450449
1656	27.583333	0.257825	1.665128	0.458720	0.308683	1.686138	0.375671	0.195044	1.688715	0.399099	0.429719	1.466344	0.324379	0.054800	1.472242	0.354603	0.514266	1.177647	0.459033	-0.013858	1.182004	0.437680	0.344456	1.304181	0.577889	0.164838	1.338121	0.542918	0.298164	1.389263	0.560441	0.195655	1.412974	0.548452	0.299401	1.374817	0.546622	0.194563	1.400390	0.540952	0.368942	0.907073	0.424343	0.135980	0.910250	0.427384	0.455762	0.497145	0.394222	0.035808	0.486994	0.369119	0.508803	0.080989	0.348395	-0.025499	0.078494	0.322667	0.501565	0.010622	0.321843	-0.002939	0.014696	0.315680	0.584141	0.022125	0.481493	-0.109436	0.010231	0.450760
